<svg width="112" height="28" viewBox="0 0 112 28" fill="none" xmlns="http://www.w3.org/2000/svg">
<path d="M26.3 15.296L19.548 5.728L12.636 15.296H26.3ZM22.844 13.568H16.06L19.484 8.768L22.844 13.568ZM31.068 22.24L27.612 17.28H11.26C10.6627 18.0907 10.076 18.9227 9.5 19.776C8.94533 20.608 8.36933 21.4293 7.772 22.24H5.212C7.47333 19.0613 9.724 15.9147 11.964 12.8C14.2253 9.68533 16.476 6.53867 18.716 3.36H20.252L33.468 22.24H31.068ZM17.852 1.568L1.852 24.032H8.636L12.156 19.072H26.62L30.108 24.032H36.892L21.212 1.568H17.852ZM24.796 4.064L41.436 27.936H32.924L29.692 24.832L28.38 22.976H15.74C15.484 23.36 15.196 23.7653 14.876 24.192C14.5773 24.6187 14.268 25.0453 13.948 25.472C13.6493 25.92 13.3507 26.3467 13.052 26.752C12.7533 27.1787 12.476 27.5733 12.22 27.936H3.676L0.284 24.832L17.436 0.768H21.628L24.796 4.064ZM44.9128 3.36H46.5768L57.6168 19.744C59.4301 16.9707 61.2541 14.2293 63.0888 11.52C64.9448 8.81067 66.8114 6.09067 68.6888 3.36H70.3528V22.24H68.3688V7.392L58.4167 22.24H56.8488L46.8968 7.424V22.24H44.9128V3.36ZM48.6568 13.248L55.8568 24.032H59.3768L66.6088 13.216V24.032H72.1128V1.568H67.6968L57.5848 16.544L47.5368 1.568H43.1528V24.032H48.6568V13.248ZM51.0888 4.064L58.0328 14.464L67.3128 0.768H72.9128L76.0168 4.064V27.936H69.1048L65.8088 24.832V23.648L62.9288 27.936H58.7048L55.4728 24.832L52.5608 20.48V27.936H45.6488L42.3528 24.832V0.768H47.9208L51.0888 4.064ZM99.2408 7.104C99.4968 7.104 99.7528 7.12533 100.009 7.168C100.286 7.21067 100.531 7.28533 100.745 7.392C100.979 7.49867 101.171 7.648 101.321 7.84C101.47 8.032 101.545 8.288 101.545 8.608C101.545 8.90667 101.459 9.152 101.289 9.344C101.139 9.536 100.947 9.68533 100.713 9.792C100.478 9.89867 100.222 9.97333 99.9448 10.016C99.6674 10.0587 99.4221 10.08 99.2088 10.08H87.3688V7.104H99.2408ZM99.2088 11.84C99.7208 11.84 100.222 11.7867 100.713 11.68C101.225 11.552 101.673 11.36 102.057 11.104C102.441 10.848 102.75 10.5173 102.985 10.112C103.219 9.68533 103.337 9.184 103.337 8.608C103.337 8.01067 103.219 7.50933 102.985 7.104C102.771 6.67733 102.473 6.336 102.089 6.08C101.726 5.80267 101.289 5.61067 100.777 5.504C100.286 5.376 99.7741 5.312 99.2408 5.312H85.5768V11.84H99.2088ZM85.5768 22.24H83.6248V3.36H99.2408C100.115 3.36 100.926 3.46667 101.673 3.68C102.419 3.872 103.059 4.18133 103.593 4.608C104.147 5.01333 104.574 5.55733 104.873 6.24C105.193 6.90133 105.353 7.69067 105.353 8.608C105.353 9.78133 105.075 10.752 104.521 11.52C103.987 12.2667 103.187 12.8533 102.121 13.28V13.312C101.63 13.4827 100.947 13.6107 100.073 13.696C99.1981 13.7813 98.2168 13.8453 97.1287 13.888C96.0621 13.9093 94.9421 13.92 93.7688 13.92C92.5954 13.92 91.4754 13.9093 90.4088 13.888C89.3421 13.8453 88.3821 13.8133 87.5288 13.792C86.6754 13.7707 86.0248 13.76 85.5768 13.76V22.24ZM107.145 8.608C107.145 7.392 106.953 6.34667 106.569 5.472C106.185 4.576 105.641 3.84 104.937 3.264C104.254 2.688 103.422 2.26133 102.441 1.984C101.481 1.70667 100.414 1.568 99.2408 1.568H81.8328V24.032H87.3688V15.52C87.8808 15.52 88.5421 15.5307 89.3528 15.552C90.1848 15.5733 91.0808 15.6053 92.0408 15.648C93.0008 15.6693 94.0034 15.68 95.0488 15.68C96.0941 15.68 97.0968 15.6587 98.0568 15.616C99.0381 15.5733 99.9448 15.4987 100.777 15.392C101.609 15.2853 102.302 15.136 102.857 14.944V14.912C104.265 14.3147 105.331 13.504 106.057 12.48C106.782 11.456 107.145 10.1653 107.145 8.608ZM81.0328 24.832V0.768H99.2408C100.073 0.768 100.883 0.831999 101.673 0.959999C102.483 1.06667 103.294 1.312 104.105 1.696C104.937 2.05867 105.79 2.58133 106.665 3.264C107.539 3.94667 108.457 4.85333 109.417 5.984C110.035 6.60267 110.462 7.424 110.697 8.448C110.931 9.472 111.049 10.592 111.049 11.808C111.049 13.536 110.643 14.9653 109.833 16.096C109.043 17.2267 107.87 18.1333 106.313 18.816C105.886 18.9653 105.374 19.0933 104.777 19.2C104.201 19.2853 103.561 19.36 102.857 19.424C102.153 19.488 101.406 19.5307 100.617 19.552C99.8488 19.5733 99.0701 19.584 98.2808 19.584C97.1288 19.584 95.9874 19.584 94.8568 19.584C93.7261 19.584 92.5314 19.5733 91.2728 19.552V27.936H84.3288L81.0328 24.832Z" fill="black"/>
</svg>
